<?xml version="1.0" encoding="utf-8"?>
<!-- Generator: Adobe Illustrator 25.0.1, SVG Export Plug-In . SVG Version: 6.00 Build 0)  -->
<svg version="1.0" id="layer" xmlns="http://www.w3.org/2000/svg" xmlns:xlink="http://www.w3.org/1999/xlink" x="0px" y="0px"
	 viewBox="0 0 863.3 573.3" style="enable-background:new 0 0 863.3 573.3;" xml:space="preserve">
<style type="text/css">
	.st0{fill:#1B004E;}
	.st1{fill:#25F5CE;}
</style>
<path class="st0" d="M210.1,393.5h-16.5l-46.2-59.3v59h-19.9v-85.7h23.1l40.1,52.6v-52.5H210L210.1,393.5L210.1,393.5z M217.9,307.6
	h19.7v15.1h-19.7V307.6z M217.9,330.8h19.7v62.5h-19.7V330.8z M299.4,393.3h-19.3c-14.4,0-21.1-6.9-21.1-19.9v-26.3h-16v-16.3h16
	v-23.2h19.5v23.2h21v16.3h-21v19.4c0,6.8,2,9.5,9.3,9.5h11.7L299.4,393.3L299.4,393.3z M325.3,393.3h-19.4v-62.5h19.4v9.8
	c1.3-2.9,5.7-9.9,18.7-9.9h13.3V350h-17c-11,0-15,4.1-15,12.8V393.3z M426.6,362c0,19.3-14.4,32.8-33.9,32.8s-33.9-13.5-33.9-32.8
	s14.4-32.8,33.9-32.8C412.1,329.2,426.6,342.7,426.6,362z M407.1,362c0-9.1-5.7-15.8-14.4-15.8c-8.7,0-14.6,6.8-14.6,15.8
	s6,15.8,14.6,15.8C401.3,377.8,407.1,371.1,407.1,362L407.1,362z M434.5,307.6h49.6c19.2,0,30.5,9.7,30.5,27.6
	c0,18-11.2,27.9-30.5,27.9h-29.4v30.2h-20.2V307.6z M454.6,325.5v19.8h27.5c7.8,0,11.6-3.7,11.6-9.9c0-6.6-3.8-9.9-11.6-9.9H454.6z
	 M562.3,384.1c-1.1,2.1-6.9,10.5-19.9,10.5c-15.5,0-28.1-12.3-28.1-32.6s12.5-32.5,28.2-32.5c12.5,0,18.5,7.8,19.6,9.9v-8.7h19.3
	v62.5h-19.1V384.1z M548.2,346.3c-8.6,0-14.3,6.8-14.3,15.8s5.7,15.8,14.3,15.8s14.1-6.8,14.1-15.8S556.8,346.3,548.2,346.3z
	 M632.3,352.6c-2.4-4.2-6.9-6.6-11.6-6.3c-8.1,0-13.3,6.8-13.3,15.8s5.2,15.9,13.4,15.9c7.7,0,11.1-4.9,11.7-6.4h18.6
	c-0.6,8.7-9,23.3-30.8,23.3c-18.1,0-32.4-13-32.4-32.8s14.1-32.8,32.1-32.8c21.8,0,30.1,14.4,31,23.4L632.3,352.6z M676.9,365.4
	v27.9h-19.3v-88.9h19.3v50.8l24.7-24.5H726l-29.6,28.8l31.2,33.7h-25.1L676.9,365.4z"/>
<path class="st1" d="M335.7,187.7c54.3,0,98.4,44.1,98.4,98.5h19.7c0-65.3-52.9-118.2-118.1-118.2s-118.1,52.9-118.1,118.2h19.7
	C237.3,231.8,281.4,187.7,335.7,187.7L335.7,187.7z M317.5,277.3L317.5,277.3c-2-4.3-1.9-9.3,0.2-13.5c2.2-4.2,6.1-7.2,10.8-8.1
	l69.2-15.9l0,0l-56.6,42.9c-3.7,3-8.5,4.1-13.1,3C323.3,284.7,319.5,281.6,317.5,277.3L317.5,277.3z"/>
</svg>
